<svg width="68" height="52" viewBox="0 0 68 52" fill="none" xmlns="http://www.w3.org/2000/svg">
<g clip-path="url(#clip0_24_501)">
<path d="M57.5871 43.7731C47.1209 32.3442 33.9765 23.5714 19.2638 18.6264C14.9645 17.1814 10.5667 16.058 6.11014 15.2192C4.78325 14.9694 3.99552 13.4115 4.31991 12.1694C4.68136 10.7853 6.03799 10.1285 7.36972 10.3791C23.4447 13.4049 38.5318 20.3996 51.175 30.7817C54.7252 33.697 58.0471 36.8751 61.149 40.2623C63.3144 42.6269 59.769 46.1557 57.5871 43.7731Z" fill="#171F38"/>
<path d="M17.0649 8.15053L12.3934 11.0702L9.99093 12.5717L8.78969 13.3224C8.63344 13.4201 8.43158 13.6044 8.2558 13.6561C8.97138 13.4458 8.09817 11.0783 8.72414 11.8187C9.27677 12.4723 9.67828 13.3422 10.1328 14.0679C10.63 14.8618 11.1272 15.6556 11.6243 16.4495C12.6187 18.0372 13.613 19.6249 14.6074 21.2125C15.3025 22.3225 14.8407 24.0238 13.6739 24.6232C12.4287 25.2628 11.0068 24.8769 10.2632 23.6897C9.10315 21.8374 7.94308 19.9851 6.783 18.1328C6.23059 17.2507 5.67816 16.3687 5.12575 15.4866C4.4361 14.3854 3.6516 13.3516 3.82291 11.9802C3.99794 10.5789 5.06269 9.75942 6.17909 9.06169L8.98199 7.30991C10.8506 6.14206 12.7192 4.97421 14.5878 3.80636C15.6983 3.11227 17.3986 3.57229 17.9984 4.73987C18.6376 5.98411 18.2528 7.4081 17.0649 8.15053Z" fill="#171F38"/>
</g>
<defs>
<clipPath id="clip0_24_501">
<rect width="65.7606" height="20.94" fill="white" transform="matrix(-0.866025 -0.5 -0.5 0.866025 67.4204 32.8804)"/>
</clipPath>
</defs>
</svg>
