<svg width="66" height="21" viewBox="0 0 66 21" fill="none" xmlns="http://www.w3.org/2000/svg">
<g clip-path="url(#clip0_23_356)">
<path d="M3.0696 14.35C17.8481 9.6854 33.6179 8.66011 48.832 11.734C53.2778 12.6322 57.6481 13.8583 61.927 15.3601C63.201 15.8072 64.6621 14.8519 65.0023 13.614C65.3813 12.2346 64.5348 10.9875 63.2562 10.5387C47.822 5.12163 31.2588 3.63558 15.1184 6.30517C10.5862 7.05478 6.12032 8.14616 1.7404 9.52862C-1.31727 10.4937 -0.0112481 15.3224 3.0696 14.35Z" fill="#25D366"/>
<path d="M55.9741 3.76118L58.5599 8.62539L59.8898 11.127L60.5547 12.3778C60.6412 12.5405 60.7238 12.8011 60.8502 12.9337C60.3357 12.3937 62.2756 10.7801 61.3633 11.1083C60.5579 11.398 59.7753 11.9506 59.0188 12.3518C58.1913 12.7907 57.3638 13.2296 56.5363 13.6685C54.8813 14.5464 53.2263 15.4242 51.5714 16.302C50.4144 16.9156 49.9637 18.6199 50.6745 19.7224C51.433 20.8989 52.8574 21.2757 54.0949 20.6193C56.0258 19.5952 57.9566 18.5711 59.8874 17.547C60.8068 17.0593 61.7262 16.5716 62.6457 16.084C63.7935 15.4752 64.9898 14.9721 65.5272 13.6988C66.0762 12.3977 65.5639 11.1556 64.9459 9.99316L63.3944 7.07463C62.3601 5.12894 61.3258 3.18326 60.2914 1.23757C59.6767 0.0811927 57.9742 -0.370567 56.871 0.340693C55.6953 1.09865 55.3166 2.52426 55.9741 3.76118Z" fill="#25D366"/>
</g>
<defs>
<clipPath id="clip0_23_356">
<rect width="65.7606" height="20.94" fill="white"/>
</clipPath>
</defs>
</svg>
