<svg width="18" height="24" viewBox="0 0 18 24" fill="none" xmlns="http://www.w3.org/2000/svg">
<g clip-path="url(#clip0_8_806)">
<path d="M0.763187 7.90876C5.17699 11.5101 9.59079 15.1114 14.0046 18.7127C14.6379 19.2295 15.5316 19.3292 16.1514 18.7127C16.6874 18.1796 16.7884 17.0973 16.1514 16.5776C11.7376 12.9762 7.3238 9.37491 2.91 5.77358C2.27665 5.25682 1.38299 5.15714 0.763187 5.77358C0.227196 6.30667 0.126204 7.38903 0.763187 7.90876Z" fill="#171F38"/>
<path d="M2.59884 20.0425C7.58189 15.158 12.5649 10.2735 17.548 5.38896C18.9417 4.02276 16.7946 1.88784 15.4012 3.25378C10.4181 8.1383 5.43507 13.0228 0.45203 17.9073C-0.941727 19.2735 1.20535 21.4084 2.59884 20.0425Z" fill="#171F38"/>
<path d="M7.06289 1.45783C6.91917 8.48594 6.77546 15.5141 6.63173 22.5422C6.59199 24.486 9.62804 24.4858 9.66779 22.5422C9.81151 15.5141 9.95523 8.48594 10.0989 1.45783C10.1387 -0.486039 7.10264 -0.485846 7.06289 1.45783Z" fill="#171F38"/>
</g>
<defs>
<clipPath id="clip0_8_806">
<rect width="18" height="24" fill="white"/>
</clipPath>
</defs>
</svg>
