<svg width="51" height="74" viewBox="0 0 51 74" fill="none" xmlns="http://www.w3.org/2000/svg">
<g clip-path="url(#clip0_24_504)">
<path d="M1.467 49.7618C8.68541 55.6904 13.5548 63.5901 18.3524 71.5393C20.6863 75.4062 26.2382 74.5038 27.5815 70.3121C34.4907 48.7514 42.213 27.4703 50.7318 6.51422C51.7745 3.94917 49.6039 0.865397 47.2051 0.19478C44.303 -0.616494 42.0403 1.20815 40.9937 3.78284C32.4749 24.739 24.7526 46.0201 17.8434 67.5807L27.0724 66.3535C21.866 57.727 16.4391 48.9286 8.60793 42.4966C6.48782 40.7553 3.53926 40.3883 1.46698 42.4966C-0.303729 44.2981 -0.665874 48.01 1.467 49.7618Z" fill="#25D366"/>
</g>
<defs>
<clipPath id="clip0_24_504">
<rect width="51" height="74" fill="white"/>
</clipPath>
</defs>
</svg>
