<svg width="69" height="69" viewBox="0 0 69 69" fill="none" xmlns="http://www.w3.org/2000/svg">
<g clip-path="url(#clip0_23_359)">
<path d="M51.3713 18.9573C56.1948 19.3311 61.0183 19.7049 65.8418 20.0786L63.4476 16.9015C61.5538 21.5384 59.6601 26.1753 57.7663 30.8121C57.27 32.0272 58.284 33.6124 59.4965 33.8954C60.9409 34.2324 62.0481 33.4669 62.5797 32.1652C64.4735 27.5283 66.3673 22.8914 68.2611 18.2546C68.9213 16.638 67.3076 15.1891 65.8669 15.0774L51.3964 13.9561C50.0902 13.8549 48.8333 15.1623 48.8833 16.4442C48.9391 17.878 49.9718 18.8489 51.3713 18.9573Z" fill="#25D366"/>
<path d="M48.5743 30.0646C53.4212 27.4558 58.2681 24.8469 63.115 22.2381C64.2687 21.6171 64.7739 19.9692 64.0717 18.8345C63.3485 17.6658 61.899 17.2152 60.6681 17.8778C55.8212 20.4866 50.9743 23.0954 46.1275 25.7042C44.9737 26.3252 44.4686 27.9731 45.1707 29.1078C45.8939 30.2766 47.3434 30.7271 48.5743 30.0646Z" fill="#25D366"/>
<path d="M26.8951 42.3347C31.742 39.7258 36.5889 37.117 41.4358 34.5082C42.5895 33.8872 43.0947 32.2393 42.3925 31.1046C41.6693 29.9358 40.2198 29.4853 38.9889 30.1478C34.142 32.7567 29.2951 35.3655 24.4483 37.9743C23.2945 38.5953 22.7894 40.2432 23.4915 41.3779C24.2147 42.5467 25.6642 42.9972 26.8951 42.3347Z" fill="#25D366"/>
<path d="M5.27014 54.4112C10.117 51.8024 14.9639 49.1936 19.8108 46.5847C20.9645 45.9638 21.4697 44.3158 20.7675 43.1811C20.0443 42.0124 18.5948 41.5618 17.3639 42.2244C12.517 44.8332 7.67014 47.442 2.82326 50.0508C1.66954 50.6718 1.16438 52.3197 1.86652 53.4545C2.5897 54.6232 4.03921 55.0738 5.27014 54.4112Z" fill="#25D366"/>
</g>
<defs>
<clipPath id="clip0_23_359">
<rect width="55.1282" height="55.0258" fill="white" transform="translate(15.8689 0.972412) rotate(15.7005)"/>
</clipPath>
</defs>
</svg>
