<svg width="71" height="25" viewBox="0 0 71 25" fill="none" xmlns="http://www.w3.org/2000/svg">
<g clip-path="url(#clip0_8_817)">
<path d="M2.8889 7.6859C19.7605 6.97901 36.6321 6.27213 53.5037 5.56524L68.0708 4.9549L67.4123 0.0906383C54.618 2.31868 42.1415 6.05448 30.1539 11.036C29.0144 11.5095 28.1809 12.4338 28.3794 13.7531C28.5605 14.9568 29.5548 15.8989 30.8125 15.9003C34.2607 15.9039 37.6017 16.7051 40.7132 18.1889V13.9124C38.9989 14.7259 37.0871 15.4007 35.4948 16.4333C33.6558 17.6259 32.9576 19.978 33.777 21.9912C34.767 24.4234 37.0608 24.8471 39.4276 24.9942C42.6119 25.1921 42.6001 20.2387 39.4276 20.0415C39.0044 20.0152 38.5694 19.9368 38.1461 19.9331C38.0115 19.9319 38.3276 19.9751 38.3177 20.0666C38.2795 20.422 38.2291 19.7953 38.3572 20.1556C38.5177 20.6068 38.3998 19.8683 38.3646 20.3124C38.3386 20.6417 37.8338 20.6953 38.3984 20.474C38.6548 20.3735 38.9024 20.2348 39.1509 20.1169C40.5053 19.4743 41.8596 18.8316 43.214 18.1889C44.8356 17.4194 44.8309 14.6834 43.214 13.9124C39.3015 12.0467 35.1647 10.9521 30.8125 10.9476L31.4711 15.8118C43.4587 10.8303 55.9351 7.09452 68.7294 4.86647C71.4848 4.38665 70.8388 -0.11377 68.0708 0.00220253C51.1993 0.709074 34.3277 1.41596 17.4561 2.12285L2.8889 2.73318C-0.287902 2.86628 -0.304689 7.8197 2.8889 7.6859Z" fill="#171F38"/>
</g>
<defs>
<clipPath id="clip0_8_817">
<rect width="70" height="25" fill="white" transform="translate(0.5)"/>
</clipPath>
</defs>
</svg>
