<svg width="30" height="31" viewBox="0 0 30 31" fill="none" xmlns="http://www.w3.org/2000/svg">
<g clip-path="url(#clip0_23_364)">
<path d="M14.8317 0.00398051C11.7135 -0.0415648 8.46926 0.543442 5.82796 2.25878C3.55098 3.7375 1.91374 5.88497 0.961576 8.39089C-0.885424 13.2519 0.0659558 19.0433 2.64229 23.471C5.33126 28.0922 10.2138 31.4193 15.7739 30.9571C19.3233 30.6621 22.7536 29.1705 25.3413 26.7557C28.0834 24.1968 29.6951 20.693 29.9615 16.9925C30.5 9.51356 25.33 2.48743 18.022 0.542668C16.9787 0.26503 15.907 0.101536 14.8317 0.00398051C14.141 -0.0586943 13.5491 0.630122 13.5491 1.26871C13.5491 2.00491 14.139 2.47058 14.8317 2.53343C18.2454 2.84316 21.4426 4.32081 23.7797 6.7986C24.39 7.44558 24.7 7.83792 25.1856 8.5793C25.6197 9.24204 25.9978 9.93847 26.3221 10.6595C26.4211 10.8797 26.2135 10.3895 26.369 10.7677C26.4013 10.8463 26.433 10.9252 26.464 11.0042C26.5336 11.1821 26.5997 11.3612 26.6624 11.5415C26.8015 11.9414 26.9234 12.3469 27.0277 12.757C27.2368 13.5789 27.3327 14.1791 27.3863 14.8501C27.45 15.6465 27.4477 16.4483 27.3758 17.2441C27.3688 17.3215 27.3061 17.85 27.333 17.6603C27.3094 17.8272 27.2812 17.9935 27.2507 18.1593C27.1743 18.5751 27.0784 18.9874 26.9631 19.3943C26.5531 20.841 25.8173 22.3044 24.9314 23.447C23.8551 24.8352 22.5415 25.9883 21.02 26.7983C19.7656 27.4661 18.5839 27.9161 17.0498 28.236C16.8743 28.2726 16.6981 28.3059 16.5212 28.3357C16.4173 28.3533 16.054 28.4049 16.3403 28.3679C16.0006 28.4118 15.6588 28.4416 15.3166 28.4575C14.6919 28.4864 14.0709 28.4605 13.4491 28.399C13.0696 28.3615 13.5779 28.4309 13.2692 28.3741C13.1295 28.3484 12.9891 28.3274 12.8497 28.3C12.5436 28.2399 12.24 28.1672 11.94 28.0822C11.673 28.0065 11.4088 27.921 11.1482 27.8262C11.0186 27.779 10.8904 27.7284 10.7622 27.6777C10.5809 27.6059 11.0491 27.8074 10.7729 27.6806C10.6897 27.6425 10.6057 27.6063 10.5227 27.5676C9.99841 27.3233 9.49278 27.0404 9.00951 26.7245C8.78012 26.5745 8.55681 26.4163 8.33697 26.2531C8.56159 26.4198 8.32699 26.2439 8.23561 26.1703C8.10475 26.0649 7.97599 25.957 7.84922 25.8469C7.40825 25.4639 6.99243 25.0531 6.60224 24.6198C6.41561 24.4126 6.23821 24.1986 6.06056 23.9839C5.87039 23.7542 6.16003 24.1263 5.94599 23.8357C5.8536 23.7102 5.76033 23.5855 5.67021 23.4584C4.9774 22.4814 4.39661 21.431 3.9191 20.3363C4.05174 20.6404 3.8764 20.2286 3.84739 20.1561C3.79439 20.0237 3.74291 19.8907 3.69304 19.7571C3.58211 19.4601 3.47891 19.1602 3.3835 18.8579C3.20233 18.284 3.04922 17.7014 2.92516 17.1129C2.86657 16.835 2.81445 16.5557 2.76898 16.2754C2.75811 16.2084 2.69834 15.7947 2.72267 15.9766C2.75135 16.1909 2.71167 15.8822 2.70964 15.8642C2.69913 15.7706 2.68813 15.6772 2.67849 15.5835C2.61946 15.0097 2.5887 14.4329 2.58816 13.8561C2.58762 13.2712 2.61809 12.6862 2.68226 12.1047C2.6916 12.02 2.75484 11.5784 2.69991 11.9416C2.72035 11.8064 2.74094 11.6714 2.7643 11.5366C2.81332 11.2538 2.87066 10.9723 2.93689 10.6929C3.06794 10.1401 3.23329 9.59502 3.43531 9.06333C3.48807 8.92446 3.54367 8.78674 3.60105 8.64967C3.4923 8.90944 3.59915 8.65894 3.65213 8.54532C3.77712 8.27727 3.91214 8.01372 4.05734 7.75575C4.18785 7.52388 4.32652 7.29645 4.47334 7.07425C4.55498 6.95072 4.63912 6.82876 4.72574 6.70857C4.78167 6.63096 5.06353 6.27278 4.84833 6.53868C5.20755 6.09484 5.5955 5.67621 6.01996 5.29203C6.2246 5.1068 6.43685 4.93019 6.65501 4.76069C6.39121 4.96565 6.74469 4.69939 6.80937 4.65414C6.95155 4.55468 7.09609 4.45853 7.24291 4.36585C7.75521 4.04248 8.29349 3.76694 8.84865 3.52278C9.03723 3.43985 8.56113 3.63293 8.87179 3.51387C8.93592 3.48928 8.99964 3.46372 9.06389 3.43943C9.22673 3.37787 9.39087 3.31964 9.55609 3.26459C9.87977 3.15675 10.2078 3.0617 10.5388 2.97816C10.8658 2.89563 11.1956 2.82467 11.5276 2.76428C11.699 2.73308 11.871 2.70552 12.0433 2.67908C12.2962 2.64025 12.1066 2.66903 12.0541 2.67582C12.1733 2.6604 12.2928 2.64681 12.4123 2.63414C13.216 2.54898 14.0239 2.52164 14.8317 2.53343C16.4831 2.55756 16.4837 0.0281115 14.8317 0.00398051Z" fill="#25D366"/>
<path d="M13.0765 9.29921C13.4407 13.2612 13.7011 17.2314 13.8574 21.2066C13.9212 22.8291 16.4869 22.8372 16.4228 21.2066C16.2665 17.2314 16.0061 13.2612 15.6418 9.29921C15.5793 8.61895 15.0971 8.03448 14.3591 8.03448C13.7138 8.03448 13.0135 8.61496 13.0765 9.29921Z" fill="#25D366"/>
<path d="M10.6717 18.3026C11.2926 18.945 11.9135 19.5875 12.5344 20.2299C12.8201 20.5255 13.1084 20.819 13.3897 21.1188C13.5192 21.2567 13.6472 21.3962 13.7709 21.5394C13.8449 21.6251 13.9182 21.7117 13.9886 21.8004C13.8516 21.6278 14.0205 21.8514 14.0598 21.9066C14.3256 22.2804 14.686 22.533 15.1673 22.533C15.5754 22.533 16.1034 22.3014 16.2749 21.9066C16.6025 21.1521 16.9914 20.4258 17.4452 19.7376C17.5536 19.5732 17.6657 19.4111 17.781 19.2514C17.8334 19.1787 17.8865 19.1066 17.9403 19.035C17.993 18.9648 18.1432 18.7797 18.0033 18.9511C18.2757 18.6173 18.5574 18.2933 18.8557 17.9817C19.3166 17.5003 19.3763 16.6642 18.8557 16.1931C18.3558 15.7406 17.5338 15.6792 17.0418 16.1931C15.7992 17.4909 14.7726 18.9882 14.0598 20.6299H16.2749C15.7299 19.8639 15.078 19.1963 14.4254 18.5211C13.7789 17.852 13.1323 17.183 12.4857 16.514C12.0219 16.034 11.1327 16.0189 10.6718 16.514C10.1924 17.0289 10.1769 17.7905 10.6717 18.3026Z" fill="#25D366"/>
</g>
<defs>
<clipPath id="clip0_23_364">
<rect width="30" height="31" fill="white"/>
</clipPath>
</defs>
</svg>
