<?xml version="1.0" encoding="UTF-8"?>
<!DOCTYPE svg PUBLIC "-//W3C//DTD SVG 1.1//EN" "http://www.w3.org/Graphics/SVG/1.1/DTD/svg11.dtd">
<svg xmlns="http://www.w3.org/2000/svg" version="1.1" width="500px" height="500px" style="shape-rendering:geometricPrecision; text-rendering:geometricPrecision; image-rendering:optimizeQuality; fill-rule:evenodd; clip-rule:evenodd" xmlns:xlink="http://www.w3.org/1999/xlink">
<g><path style="opacity:1" fill="#fefefe" d="M 231.5,-0.5 C 241.833,-0.5 252.167,-0.5 262.5,-0.5C 363.847,9.70605 436.347,60.706 480,152.5C 491.587,180.169 498.087,208.835 499.5,238.5C 499.5,246.167 499.5,253.833 499.5,261.5C 489.463,357.445 442.13,428.279 357.5,474C 327.253,488.309 295.586,496.809 262.5,499.5C 253.167,499.5 243.833,499.5 234.5,499.5C 210.558,497.113 187.225,491.613 164.5,483C 151.479,477.155 138.479,471.322 125.5,465.5C 83.8473,476.243 42.5139,487.576 1.5,499.5C 0.833333,499.5 0.166667,499.5 -0.5,499.5C -0.5,498.5 -0.5,497.5 -0.5,496.5C 11.3867,456.279 22.7201,415.779 33.5,375C 14.9618,340.665 3.62849,304.165 -0.5,265.5C -0.5,253.167 -0.5,240.833 -0.5,228.5C 2.92743,193.271 13.0941,159.938 30,128.5C 75.6037,52.1044 142.77,9.10445 231.5,-0.5 Z"/></g>
<g><path style="opacity:1" fill="#5565cd" d="M 230.5,42.5 C 316.798,39.0588 382.965,73.3921 429,145.5C 468.138,220.576 465.138,293.909 420,365.5C 369.777,433.848 302.277,463.348 217.5,454C 199.048,450.738 181.381,445.071 164.5,437C 154.019,431.344 143.519,425.844 133,420.5C 108.97,427.049 84.8038,433.049 60.5,438.5C 66.5074,414.652 72.8407,390.819 79.5,367C 39.0384,304.511 31.8717,238.344 58,168.5C 92.3843,94.8879 149.884,52.8879 230.5,42.5 Z"/></g>
<g><path style="opacity:1" fill="#fefefe" d="M 245.5,114.5 C 250.447,113.628 254.613,114.961 258,118.5C 259.397,123.708 259.897,129.041 259.5,134.5C 277.503,134.333 295.503,134.5 313.5,135C 326.009,138.175 333.842,146.009 337,158.5C 337.667,183.167 337.667,207.833 337,232.5C 334.241,244.258 327.074,251.758 315.5,255C 293.04,256.14 270.54,256.64 248,256.5C 227.167,256.333 206.333,256.167 185.5,256C 173.027,252.86 165.193,245.027 162,232.5C 161.333,207.833 161.333,183.167 162,158.5C 165.067,146.432 172.567,138.599 184.5,135C 202.83,134.5 221.164,134.333 239.5,134.5C 239.334,129.821 239.501,125.155 240,120.5C 241.36,117.977 243.193,115.977 245.5,114.5 Z"/></g>
<g><path style="opacity:1" fill="#5666cd" d="M 213.5,175.5 C 229.388,174.553 236.555,181.886 235,197.5C 229.216,208.317 220.716,211.15 209.5,206C 202.146,199.315 200.646,191.482 205,182.5C 207.628,179.79 210.461,177.456 213.5,175.5 Z"/></g>
<g><path style="opacity:1" fill="#5666cd" d="M 274.5,175.5 C 291.683,174.841 298.517,182.841 295,199.5C 288.772,208.714 280.606,210.881 270.5,206C 264.134,200.567 261.968,193.734 264,185.5C 266.738,181.26 270.238,177.926 274.5,175.5 Z"/></g>
<g><path style="opacity:1" fill="#fefefe" d="M 165.5,276.5 C 221.501,276.333 277.501,276.5 333.5,277C 344.371,279.675 351.871,286.175 356,296.5C 364.13,332.074 351.63,357.24 318.5,372C 296.008,381.585 272.508,385.751 248,384.5C 218.563,386.349 191.397,379.516 166.5,364C 152.662,354.835 144.496,342.002 142,325.5C 141.333,316.833 141.333,308.167 142,299.5C 145.836,287.68 153.669,280.013 165.5,276.5 Z"/></g>
</svg>
