<svg xmlns="http://www.w3.org/2000/svg" version="1.1" viewBox="113.96 124.69 261.22 261.48">
<path fill="#6938D9" d="   M 137.02 163.83   C 136.82 166.68 136.53 169.55 136.52 172.39   Q 136.37 271.07 136.82 369.76   Q 136.85 377.18 135.42 380.02   C 129.88 391.05 113.89 386.23 113.96 373.49   Q 114.78 221.41 114.24 135.75   C 114.20 129.31 119.16 125.25 125.24 124.71   C 130.68 124.23 136.65 130.91 139.60 133.90   Q 191.72 186.66 243.40 238.18   Q 244.58 239.35 245.75 238.18   Q 301.03 182.41 355.04 128.54   C 363.34 120.26 375.21 126.31 375.18 137.81   Q 374.86 251.45 375.04 365.08   C 375.05 375.64 375.96 384.99 363.36 385.61   C 359.37 385.81 356.91 383.66 354.25 381.00   Q 254.04 280.58 153.85 180.15   Q 145.62 171.89 137.31 163.71   Q 137.04 163.45 137.02 163.83   Z   M 351.92 346.91   A 0.34 0.34 0.0 0 0 352.50 346.67   L 352.50 164.13   A 0.34 0.34 0.0 0 0 351.92 163.89   L 261.08 255.16   A 0.34 0.34 0.0 0 0 261.08 255.64   L 351.92 346.91   Z"/>
</svg>